<?xml version="1.0" encoding="utf-8"?>
<!-- Generator: Adobe Illustrator 21.0.0, SVG Export Plug-In . SVG Version: 6.00 Build 0)  -->
<svg version="1.1" id="Layer_1" xmlns="http://www.w3.org/2000/svg" xmlns:xlink="http://www.w3.org/1999/xlink" x="0px" y="0px"
	 viewBox="0 0 308 87" style="enable-background:new 0 0 308 87;" xml:space="preserve">
<style type="text/css">
	.st0{fill:#555366;}
	.st1{fill:#2C2939;}
</style>
<path class="st0" d="M74.7,53.7V40.2c0-1.3-0.5-2.6-1.4-3.5c-1-0.9-2.1-1.5-3.5-1.5H56.3c0-4.3,1.5-8.4,4.2-11.7
	c2.7-3.3,6.4-5.5,10.6-6.4c4.2-0.9,8.5-0.2,12.2,1.8c3.8,2,6.7,5.2,8.4,9.1c1.2,2.8,1.7,5.8,1.4,8.9c-0.3,3-1.3,6-3,8.5
	c-1.7,2.5-4,4.6-6.6,6C80.9,53,77.8,53.7,74.7,53.7z"/>
<path class="st1" d="M69.8,35.3h-27c-2.7,0-4.9,2.2-4.9,4.9v27.1c0,2.7,2.2,4.9,4.9,4.9h27.1c2.7,0,4.9-2.2,4.9-4.9V40.2
	C74.7,37.5,72.5,35.3,69.8,35.3z"/>
<path class="st0" d="M56.3,72.2c0-4.9,1.9-9.6,5.4-13.1c3.5-3.5,8.2-5.4,13.1-5.4v13.5c0,1.3-0.5,2.6-1.4,3.5c-1,1-2.1,1.5-3.5,1.5
	H56.3z"/>
<path class="st0" d="M37.8,53.7V40.2c0-1.3,0.5-2.6,1.5-3.5c1-1,2.2-1.5,3.5-1.5h13.5c0,4.9-1.9,9.6-5.4,13.1
	C47.4,51.8,42.7,53.7,37.8,53.7z"/>
<path class="st1" d="M135,64.2h8.7l-12.2-33.7H122l-12.2,33.7h8.6l2-6H133L135,64.2z M130.8,51.9h-8.3l4.1-12.3L130.8,51.9z
	 M159.7,54.2l-6.2-16.8h-9.2l10.9,25.9l-6.1,13.6h8.8l16.8-39.5h-8.9L159.7,54.2z M185.9,51.8c0-4.6,2.3-6,6.1-6h2.3v-8.7
	c-3.6,0-6.5,1.9-8.4,4.8v-4.5h-8.2v26.8h8.2L185.9,51.8L185.9,51.8z M224.4,50.8c0-8.5-6-13.8-13.9-13.8c-7.8,0-13.9,5.3-13.9,13.8
	s6,13.8,13.8,13.8S224.4,59.3,224.4,50.8z M204.9,50.8c0-4.6,2.6-6.7,5.6-6.7c2.9,0,5.6,2.1,5.6,6.7c0,4.5-2.7,6.7-5.7,6.7
	C207.4,57.5,204.9,55.3,204.9,50.8z M242.2,51.9c0,8.7,5.7,12.7,12.6,12.7s12.6-4,12.6-12.7V30.7H263v21.2c0,6.1-3.3,8.8-8.2,8.8
	c-4.9,0-8.3-2.6-8.3-8.8V30.7h-4.4L242.2,51.9z M274.7,64.2h4.4V30.7h-4.4V64.2z"/>
</svg>
