<?xml version="1.0" encoding="utf-8"?>
<!-- Generator: Adobe Illustrator 21.0.0, SVG Export Plug-In . SVG Version: 6.00 Build 0)  -->
<svg version="1.1" id="Layer_1" xmlns="http://www.w3.org/2000/svg" xmlns:xlink="http://www.w3.org/1999/xlink" x="0px" y="0px"
	 viewBox="0 0 231 95" style="enable-background:new 0 0 231 95;" xml:space="preserve">
<style type="text/css">
	.st0{fill:#2C2939;}
	.st1{fill:#262626;}
	.st2{fill:#FFFFFF;}
	.st3{fill:#999999;}
</style>
<g>
	<path class="st0" d="M88.9,56.5h-3.4V38h6.9c0.8,0,1.7,0.2,2.4,0.5c0.7,0.3,1.3,0.8,1.9,1.3c0.5,0.5,0.9,1.2,1.2,1.9
		c0.5,1.2,0.6,2.5,0.2,3.8c-0.1,0.5-0.4,1-0.6,1.5c-0.6,1-1.4,1.7-2.5,2.2c0.9,1.2,1.8,2.4,2.7,3.7c0.9,1.2,1.8,2.4,2.7,3.6h-2.6
		c-0.2,0-0.4,0-0.6-0.1c-0.3-0.1-0.5-0.2-0.8-0.4c-0.3-0.2-0.6-0.4-0.8-0.6c-0.3-0.3-0.6-0.6-0.8-1l-3.4-4.5h-2.5V56.5z M92.6,46.4
		c0.3,0,0.6-0.1,0.9-0.2c0.3-0.1,0.6-0.3,0.8-0.6c0.2-0.2,0.4-0.5,0.5-0.8c0.1-0.3,0.2-0.6,0.2-0.9c0-0.3-0.1-0.7-0.2-1
		c-0.1-0.3-0.3-0.6-0.5-0.8c-0.2-0.2-0.5-0.4-0.8-0.6c-0.3-0.1-0.6-0.2-0.9-0.2h-3.7v5L92.6,46.4z"/>
	<path class="st0" d="M109.5,38h3.1l8.1,18.5h-2.1c-0.5,0-0.9-0.1-1.3-0.4c-0.4-0.2-0.7-0.6-0.9-1l-1.1-2.5h-8.4l-1.1,2.5
		c-0.1,0.2-0.2,0.4-0.4,0.6c-0.2,0.2-0.3,0.3-0.5,0.4c-0.2,0.1-0.4,0.2-0.6,0.3c-0.2,0.1-0.5,0.1-0.7,0.1h-2.1L109.5,38z
		 M108.3,49.2h5.4l-2.4-5.6c-0.1-0.2-0.2-0.5-0.2-0.7c0-0.2-0.1-0.4-0.1-0.5c0,0.2,0,0.3-0.1,0.5c0,0.2-0.1,0.5-0.2,0.7L108.3,49.2z
		"/>
	<path class="st0" d="M130.3,56.5h-3.4v-7.8c0-0.3-0.1-0.5-0.2-0.7c-0.1-0.3-0.3-0.5-0.5-0.7l-6.8-9.2h2.6c0.5,0,1,0.1,1.5,0.3
		c0.4,0.2,0.8,0.6,1.1,1l3.6,4.9c0.1,0.1,0.2,0.3,0.2,0.5c0,0.2,0.1,0.3,0.1,0.3c0-0.1,0-0.2,0.1-0.3c0.1-0.2,0.1-0.3,0.3-0.5
		l3.6-4.9c0.3-0.4,0.6-0.8,1.1-1c0.5-0.2,1-0.3,1.5-0.3h2.6l-6.8,9.2c-0.1,0.1-0.2,0.3-0.3,0.4c-0.1,0.1-0.1,0.2-0.2,0.3
		c-0.1,0.1-0.1,0.2-0.1,0.3c0,0.1,0,0.3,0,0.4L130.3,56.5z"/>
	<path class="st0" d="M156.4,47.6v7.1c-0.4,0.4-0.9,0.7-1.4,1c-0.5,0.3-1.1,0.5-1.6,0.6c-0.6,0.2-1.2,0.3-1.8,0.3
		c-0.6,0.1-1.3,0.1-1.9,0.1c-1.3,0-2.5-0.2-3.7-0.7c-1.1-0.5-2.2-1.2-3-2c-0.9-0.9-1.6-1.9-2-3c-0.5-1.2-0.7-2.4-0.7-3.7
		c0-1.3,0.3-2.5,0.7-3.7c0.5-1.1,1.2-2.1,2-3c0.9-0.9,1.9-1.5,3-2c2.3-1,5-1,7.3,0c1.1,0.5,2.1,1.1,3,1.9l-0.1,0.1
		c-0.2,0.2-0.3,0.3-0.5,0.4c-0.2,0.1-0.4,0.1-0.6,0.1c-0.3,0-0.6-0.1-0.8-0.3c-0.6-0.4-1.3-0.8-2.1-1c-0.8-0.2-1.6-0.4-2.4-0.4
		c-0.7,0-1.4,0.1-2.1,0.3c-0.7,0.2-1.3,0.4-1.9,0.8c-0.6,0.3-1.1,0.8-1.6,1.2c-0.5,0.5-0.9,1-1.2,1.6c-0.3,0.6-0.6,1.2-0.8,1.9
		c-0.2,0.7-0.3,1.4-0.3,2.1c0,0.7,0.1,1.4,0.3,2.1c0.4,1.3,1.1,2.5,2.1,3.4c0.5,0.5,1,0.9,1.6,1.2c0.6,0.3,1.2,0.6,1.9,0.8
		c0.7,0.2,1.4,0.3,2.1,0.3c0.9,0,1.8-0.1,2.6-0.4c0.8-0.2,1.6-0.6,2.4-1.1v-4.4h-1.6c-0.2,0-0.4,0-0.6-0.1c-0.2-0.1-0.4-0.2-0.5-0.4
		c-0.1-0.1-0.2-0.3-0.3-0.5c-0.1-0.2-0.1-0.4-0.1-0.6v-0.1L156.4,47.6z"/>
	<path class="st0" d="M163.5,56.5h-1.6V38h6.6c0.7,0,1.4,0.1,2.1,0.4c0.6,0.3,1.2,0.6,1.7,1.1c0.5,0.5,0.9,1,1.1,1.6
		c0.3,0.6,0.4,1.3,0.4,2c0,0.6-0.1,1.3-0.3,1.8c-0.2,0.6-0.5,1.1-0.9,1.6c-0.4,0.5-0.9,0.9-1.4,1.2c-0.5,0.3-1.1,0.5-1.8,0.6
		l6.2,8.1h-0.8c-0.9,0-1.6-0.3-2-1l-5.4-7.2h-3.8V56.5z M163.5,39.6v7.1h4.9c0.5,0,1-0.1,1.4-0.3c0.4-0.2,0.8-0.4,1.1-0.8
		c0.3-0.3,0.6-0.7,0.8-1.1c0.2-0.4,0.3-0.9,0.3-1.4c0-0.5-0.1-0.9-0.3-1.4c-0.4-0.9-1.1-1.5-1.9-1.9c-0.4-0.2-0.9-0.3-1.4-0.3H163.5
		z"/>
	<path class="st0" d="M181.2,56.5h-1.5V38h1.5V56.5z"/>
	<path class="st0" d="M187.6,56.5V38h6.8c1.6,0,3.2,0.4,4.7,1.3c1.4,0.8,2.5,1.9,3.3,3.3c0.8,1.4,1.3,3,1.3,4.7
		c0,1.6-0.4,3.2-1.3,4.7c-0.4,0.7-0.9,1.3-1.4,1.9c-1.1,1.1-2.5,1.9-4.1,2.4c-0.8,0.2-1.6,0.3-2.5,0.3H187.6z M194.4,54.8
		c1,0,2-0.2,3-0.6c0.9-0.4,1.7-0.9,2.4-1.6c0.7-0.7,1.3-1.5,1.6-2.4c0.4-0.9,0.6-1.9,0.6-3c0-1-0.2-2-0.6-3
		c-0.4-0.9-0.9-1.7-1.6-2.4c-0.7-0.7-1.5-1.2-2.4-1.6c-0.9-0.4-2-0.6-3-0.6h-5.2v15.2H194.4z"/>
	<path class="st0" d="M215.3,40.4c-0.2-0.1-0.4-0.3-0.5-0.4c-0.3-0.2-0.7-0.4-1.1-0.5c-0.3-0.1-0.6-0.1-0.9-0.1
		c-0.5,0-1,0.1-1.4,0.3c-0.4,0.2-0.8,0.4-1.2,0.7c-0.3,0.3-0.6,0.6-0.8,1c-0.2,0.4-0.3,0.8-0.3,1.2c0,0.4,0.1,0.8,0.2,1.2
		c0.1,0.3,0.4,0.6,0.6,0.8c0.4,0.3,0.8,0.5,1.2,0.7c0.5,0.2,1.1,0.4,1.8,0.7c0.4,0.1,0.7,0.3,1.1,0.4c0.3,0.1,0.6,0.2,0.9,0.4
		c0.3,0.1,0.6,0.3,0.8,0.4c0.3,0.1,0.5,0.3,0.7,0.5c0.6,0.4,1,1,1.3,1.7c0.3,0.7,0.4,1.5,0.4,2.2c0,0.8-0.2,1.5-0.5,2.2
		c-0.3,0.6-0.7,1.2-1.3,1.6c-0.6,0.5-1.2,0.8-1.9,1c-0.8,0.2-1.5,0.4-2.3,0.4c-1.6,0-3-0.5-4.1-1.4c-0.3-0.3-0.5-0.5-0.8-0.8
		c-0.2-0.2-0.4-0.5-0.5-0.7l0.2-0.1c0.2-0.2,0.5-0.2,0.8-0.2c0.2,0,0.4,0,0.6,0.1c0.2,0.1,0.4,0.2,0.5,0.3c0.3,0.3,0.6,0.5,1,0.8
		c0.3,0.2,0.5,0.3,0.8,0.4c0.2,0.1,0.5,0.1,0.7,0.1c0.2,0,0.5,0,0.7,0c0.5,0,1,0,1.6-0.2c0.5-0.1,1-0.3,1.4-0.6
		c0.4-0.3,0.8-0.7,1-1.1c0.3-0.5,0.4-1.1,0.4-1.6c0-0.6-0.1-1.2-0.3-1.7c-0.2-0.4-0.5-0.8-0.9-1c-0.4-0.3-0.8-0.5-1.3-0.7
		c-0.5-0.2-1-0.4-1.6-0.6c-0.7-0.3-1.4-0.6-2-0.8c-0.6-0.2-1.1-0.5-1.5-0.9c-0.4-0.3-0.8-0.8-1-1.3c-0.3-0.6-0.4-1.3-0.4-1.9
		c0-0.7,0.2-1.4,0.5-2c0.3-0.6,0.7-1.1,1.2-1.5c0.5-0.4,1.1-0.7,1.7-1c0.6-0.2,1.3-0.3,1.9-0.3c0.5,0,1,0.1,1.5,0.2
		c0.4,0.1,0.8,0.3,1.2,0.5c0.4,0.2,0.7,0.5,1,0.7c0.3,0.3,0.6,0.5,0.8,0.8l-0.4,0.3c-0.1,0.1-0.2,0.1-0.4,0.2
		c-0.2,0.1-0.3,0.1-0.5,0.1C215.8,40.7,215.5,40.6,215.3,40.4L215.3,40.4z"/>
	<path class="st0" d="M80.1,46.6v7.7c-0.4,0.4-1,0.8-1.5,1.1c-0.5,0.3-1.1,0.5-1.7,0.7c-0.6,0.2-1.2,0.3-1.9,0.4
		c-0.6,0.1-1.3,0.1-1.9,0.1c-1.3,0-2.5-0.2-3.7-0.7c-1.1-0.5-2.1-1.2-3-2c-0.9-0.9-1.6-1.9-2-3c-0.5-1.2-0.8-2.4-0.7-3.7
		c0-1.7,0.4-3.3,1.3-4.8c0.4-0.7,0.9-1.3,1.5-1.9c1.2-1.2,2.6-2,4.2-2.4c0.8-0.2,1.7-0.3,2.5-0.3c0.7,0,1.4,0.1,2,0.2
		c0.7,0.2,1.3,0.4,1.9,0.7c0.6,0.3,1.2,0.7,1.8,1.1c0.6,0.4,1.1,0.9,1.6,1.4L79.6,42c-0.2,0.2-0.5,0.4-0.8,0.6
		c-0.3,0.1-0.6,0.2-1,0.2c-0.5,0-0.9-0.1-1.3-0.4c-0.5-0.3-1-0.6-1.6-0.8c-0.6-0.2-1.2-0.3-1.8-0.3c-0.8,0-1.6,0.2-2.4,0.5
		c-1.5,0.6-2.6,1.8-3.3,3.2c-0.3,0.7-0.5,1.5-0.5,2.3c0,0.8,0.2,1.6,0.5,2.4c0.5,1.1,1.3,2,2.3,2.7c1,0.7,2.2,1,3.4,1
		c0.4,0,0.8,0,1.2-0.1c0.4-0.1,0.8-0.1,1.1-0.2c0.4-0.1,0.8-0.3,1.1-0.5v-2.6l-1.1,0c-0.3,0-0.6-0.1-0.9-0.2
		c-0.3-0.1-0.5-0.4-0.7-0.7c-0.2-0.4-0.3-0.9-0.2-1.4v-1L80.1,46.6z"/>
	<path class="st0" d="M56,50.2c1.5-11.9-6.9-22.7-18.7-24.2C25.4,24.5,14.6,32.9,13,44.8C11.5,56.6,19.9,67.5,31.8,69
		C43.6,70.5,54.5,62.1,56,50.2z"/>
	<path class="st1" d="M35.3,47.2v2.1h4.5v3.5h-4.5v0c-0.1,0-0.2,0-0.4,0c-0.7,0-1.3-0.1-2-0.4c-0.9-0.4-1.7-1-2.2-1.8
		c-0.7-1-1-2.2-0.8-3.4c0.1-1.2,0.7-2.3,1.6-3.1c0.9-0.8,2-1.3,3.2-1.3c1.2,0,2.4,0.4,3.3,1.1H47c-0.1-0.4-0.2-0.7-0.4-1
		c-0.9-2.1-2.3-3.9-4.2-5.3s-4-2.2-6.3-2.4c-2.3-0.2-4.6,0.2-6.6,1.2c-2.1,1-3.8,2.5-5.1,4.4c-1.3,1.9-2,4.1-2.1,6.4
		c-0.1,2.3,0.4,4.6,1.5,6.6c1.1,2,2.7,3.7,4.6,4.9c2,1.2,4.2,1.8,6.5,1.8h12.6V47.2L35.3,47.2z M39.9,58.2h-4.2c-0.2,0-0.3,0-0.5,0
		h-0.4c-1.8,0-3.6-0.5-5.2-1.4c-1.6-0.9-2.9-2.2-3.8-3.8c-0.9-1.6-1.4-3.3-1.5-5.2c0-1.8,0.4-3.6,1.3-5.2c0.9-1.6,2.1-2.9,3.6-3.9
		c1.5-1,3.3-1.5,5.1-1.6c1.8-0.1,3.6,0.3,5.2,1.1c1.6,0.8,3,2,4,3.5h-4.9c-0.9-0.6-2-1-3.1-1.1c-1.1-0.1-2.2,0-3.2,0.4
		c-1,0.4-2,1-2.7,1.8c-0.8,0.8-1.3,1.8-1.6,2.8c-0.3,1.1-0.4,2.2-0.2,3.3c0.2,1.1,0.6,2.1,1.3,3c0.7,0.9,1.5,1.6,2.5,2.1
		c1,0.5,2.1,0.8,3.2,0.8h4.9V58.2z M45.5,58.3h-3.5l0,0h0v-3.4h3.5V58.3z M45.5,52.7h-3.5v-3.5h3.5V52.7z"/>
	<path class="st2" d="M34.7,46.5v2.1h4.5V52h-4.5v0c-0.1,0-0.2,0-0.4,0c-0.8,0-1.6-0.2-2.4-0.6c-0.7-0.4-1.3-0.9-1.8-1.6
		c-0.5-0.7-0.7-1.5-0.8-2.3c-0.1-0.8,0-1.7,0.4-2.4c0.4-0.9,1-1.7,1.8-2.2c0.7-0.5,1.5-0.8,2.3-0.8s1.7,0,2.4,0.4
		c0.4,0.2,0.9,0.4,1.2,0.7h8.9c-0.1-0.4-0.2-0.7-0.4-1c-0.9-2.1-2.3-3.9-4.2-5.3c-1.8-1.3-4-2.2-6.3-2.4c-2.3-0.2-4.6,0.2-6.6,1.2
		c-2.1,1-3.8,2.5-5.1,4.4c-1.3,1.9-2,4.1-2.1,6.4c-0.1,2.3,0.4,4.5,1.5,6.6c1.1,2,2.7,3.7,4.6,4.9s4.2,1.8,6.5,1.8h12.6V46.5
		L34.7,46.5z M39.2,57.6h-4.2c-0.2,0-0.3,0-0.5,0h-0.4c-1.8,0-3.6-0.5-5.2-1.4c-1.6-0.9-2.9-2.2-3.8-3.8c-0.9-1.6-1.4-3.3-1.5-5.2
		c0-1.8,0.4-3.6,1.3-5.2c0.9-1.6,2.1-2.9,3.6-3.9c1.5-1,3.3-1.5,5.1-1.6c1.8-0.1,3.6,0.3,5.2,1.1c1.6,0.8,3,2,4,3.5h-4.9
		c-0.9-0.6-2-1-3.1-1.1c-1.1-0.1-2.2,0-3.2,0.4s-2,1-2.7,1.8C28.4,43,27.9,44,27.5,45s-0.4,2.2-0.2,3.3c0.2,1.1,0.6,2.1,1.3,3
		c0.7,0.9,1.5,1.6,2.5,2.1c1,0.5,2.1,0.7,3.2,0.7h4.9L39.2,57.6z M44.9,57.6h-3.5l0,0h0v-3.5h3.5V57.6z M44.9,52.1h-3.5v-3.5h3.5
		V52.1z"/>
	<path class="st3" d="M39.2,54.1h2.1v1h-2.1V54.1z"/>
	<path class="st3" d="M37.6,48.6h1.7v1h2.1v-1h1.5v0L37.6,48.6L37.6,48.6z"/>
</g>
</svg>
