<?xml version="1.0" encoding="utf-8"?>
<!-- Generator: Adobe Illustrator 21.0.0, SVG Export Plug-In . SVG Version: 6.00 Build 0)  -->
<svg version="1.1" id="Layer_1" xmlns="http://www.w3.org/2000/svg" xmlns:xlink="http://www.w3.org/1999/xlink" x="0px" y="0px"
	 viewBox="0 0 268 64" style="enable-background:new 0 0 268 64;" xml:space="preserve">
<style type="text/css">
	.st0{fill:none;stroke:#2C2939;stroke-width:6;stroke-miterlimit:10;}
	.st1{clip-path:url(#SVGID_2_);}
	.st2{fill:#2C2939;}
</style>
<g>
	<path class="st0" d="M39.9,32c4.3,5.8,8.7,11.6,17.2,11.6C63.7,43.6,69,38.4,69,32"/>
	<path class="st0" d="M10.8,32c0-6.4,5.3-11.6,11.9-11.6c8.6,0,13,5.8,17.2,11.6"/>
	<path class="st0" d="M69,32c0-6.4-5.3-11.6-11.9-11.6c-8.6,0-13,5.8-17.2,11.6c-4.3,5.8-8.7,11.6-17.2,11.6
		c-6.5,0-11.9-5.2-11.9-11.6"/>
	<g>
		<defs>
			<rect id="SVGID_1_" x="92.3" y="16.7" width="169.3" height="30.6"/>
		</defs>
		<clipPath id="SVGID_2_">
			<use xlink:href="#SVGID_1_"  style="overflow:visible;"/>
		</clipPath>
		<g class="st1">
			<path class="st2" d="M92.3,47.2V16.7h4v26.5h12.5v4H92.3z M112.8,23.1v-4.2h4v4.2H112.8z M112.8,47.2v-22h4v22H112.8z
				 M166.8,23.1v-4.2h4v4.2H166.8z M166.8,47.2v-22h4v22H166.8z M139.2,33.2c-0.1-0.9-0.3-1.8-0.6-2.7c-0.3-0.9-0.8-1.8-1.4-2.6
				c-0.6-0.8-1.4-1.5-2.4-1.9c-1-0.5-2.2-0.7-3.6-0.7c-1.9,0-3.4,0.4-4.7,1.3c-0.6,0.4-1.1,0.9-1.6,1.4v-2.7h-4v22h4V36.3h0.1
				c0-1.3,0.1-2.4,0.4-3.3c0.2-0.9,0.6-1.7,1.1-2.2c0.5-0.5,1.1-0.9,1.7-1.2c0.6-0.3,1.3-0.4,2.1-0.4c1.1,0,2,0.3,2.7,0.7
				c0.7,0.5,1.2,1.1,1.6,1.9c0.4,0.8,0.6,1.6,0.7,2.5c0.1,0.9,0.2,1.8,0.2,2.7v10.3h4.1V35.5C139.4,34.9,139.4,34.1,139.2,33.2z
				 M240.2,33.2c-0.1-0.9-0.3-1.8-0.6-2.7c-0.3-0.9-0.8-1.8-1.4-2.6c-0.6-0.8-1.4-1.5-2.4-1.9c-1-0.5-2.2-0.7-3.6-0.7
				c-1.9,0-3.4,0.4-4.7,1.3c-0.6,0.4-1.1,0.9-1.6,1.4v-2.7h-4v22h4V36.3h0.1c0-1.3,0.1-2.4,0.4-3.3c0.2-0.9,0.6-1.7,1.1-2.2
				c0.5-0.5,1.1-0.9,1.7-1.2c0.6-0.3,1.3-0.4,2.1-0.4c1.1,0,2,0.3,2.7,0.7c0.7,0.5,1.2,1.1,1.6,1.9c0.4,0.8,0.6,1.6,0.7,2.5
				c0.1,0.9,0.2,1.8,0.2,2.7v10.3h4.1V35.5C240.4,34.9,240.3,34.1,240.2,33.2z M161.2,37.3h2c0.1-2.5-0.1-4.6-0.9-6.5
				c-0.7-1.8-1.9-3.2-3.3-4.2c-1.5-1-3.3-1.5-5.4-1.5c-2,0-3.8,0.5-5.3,1.4c-1.5,0.9-2.7,2.2-3.6,3.9c-0.9,1.7-1.2,3.6-1.2,5.9
				c0,2.1,0.4,4,1.3,5.7c0.9,1.7,2.1,2.9,3.6,3.8c1.6,0.9,3.4,1.4,5.4,1.4c2,0,3.8-0.5,5.5-1.5c1.6-1,2.9-2.5,3.7-4.3l-3.9-1.3
				c-0.5,1.1-1.2,1.9-2.1,2.5c-0.9,0.6-2,0.9-3.2,0.9c-1.9,0-3.4-0.6-4.4-1.9c-0.8-1.1-1.3-2.5-1.4-4.2h11.4h1.8V37.3z M149.2,30.7
				c1-1.3,2.5-1.9,4.5-1.9c1.8,0,3.2,0.6,4.1,1.7c0.6,0.8,1.1,2,1.2,3.4h-11.2C148.1,32.6,148.6,31.6,149.2,30.7z M184.4,47.2
				c-2.1,0-3.9-0.5-5.4-1.5c-1.5-0.9-2.6-2.3-3.4-3.9c-0.8-1.7-1.2-3.6-1.2-5.6c0-2.1,0.4-4,1.2-5.7s1.9-3,3.4-3.9
				c1.5-0.9,3.3-1.4,5.4-1.4c2.2,0,4.2,0.6,5.8,1.7c1.6,1.1,2.7,2.7,3.2,4.6l-4,1.1c-0.4-1.2-1.1-2.1-1.9-2.7c-0.9-0.7-1.9-1-3.1-1
				c-1.3,0-2.4,0.3-3.2,0.9c-0.9,0.6-1.5,1.5-1.9,2.6c-0.4,1.1-0.6,2.3-0.6,3.7c0,2.1,0.5,3.9,1.5,5.2c0.9,1.3,2.4,2,4.3,2
				c1.3,0,2.3-0.3,3.1-0.9c0.8-0.6,1.4-1.5,1.8-2.6l4.1,1c-0.7,2.1-1.8,3.6-3.4,4.7C188.6,46.7,186.6,47.2,184.4,47.2z M207.6,47.2
				c-2.1,0-3.9-0.5-5.4-1.4c-1.5-0.9-2.7-2.3-3.5-3.9c-0.8-1.7-1.2-3.6-1.2-5.7c0-2.2,0.4-4.1,1.2-5.8c0.9-1.7,2-2.9,3.6-3.8
				c1.5-0.9,3.3-1.4,5.3-1.4c2.1,0,3.9,0.5,5.4,1.4c1.5,0.9,2.7,2.3,3.6,3.9c0.8,1.7,1.2,3.6,1.2,5.7c0,2.2-0.4,4.1-1.2,5.8
				c-0.8,1.7-2,2.9-3.6,3.9C211.4,46.7,209.7,47.2,207.6,47.2z M207.6,43.4c2,0,3.4-0.7,4.4-2c1-1.3,1.5-3,1.5-5.2
				c0-2.2-0.5-3.9-1.5-5.2c-1-1.3-2.4-2-4.4-2c-1.4,0-2.4,0.3-3.3,0.9c-0.9,0.6-1.5,1.5-1.9,2.5c-0.4,1.1-0.6,2.3-0.6,3.7
				c0,2.2,0.5,3.9,1.5,5.2C204.2,42.8,205.7,43.4,207.6,43.4z M253.4,47.2c-2.5,0-4.6-0.5-6.2-1.7c-1.6-1.1-2.6-2.7-2.9-4.7l4.1-0.7
				c0.2,1.1,0.9,1.9,1.7,2.6c0.9,0.6,2.1,0.9,3.4,0.9c1.2,0,2.2-0.3,2.9-0.8c0.7-0.5,1.1-1.2,1.1-2.1c0-0.5-0.1-0.9-0.4-1.3
				s-0.7-0.7-1.6-0.9c-0.8-0.3-2-0.7-3.6-1.1c-1.7-0.5-3.2-1-4.2-1.5s-1.8-1.2-2.2-1.9c-0.4-0.7-0.7-1.6-0.7-2.6
				c0-1.3,0.3-2.4,1-3.3c0.7-0.9,1.6-1.7,2.8-2.2c1.2-0.5,2.6-0.8,4.2-0.8c1.6,0,3,0.3,4.2,0.7c1.2,0.5,2.2,1.2,3,2.1
				c0.7,0.9,1.2,2,1.4,3.2l-4.1,0.7c-0.1-1-0.6-1.8-1.4-2.4c-0.8-0.6-1.8-0.9-3.1-0.9c-1.2-0.1-2.2,0.1-2.9,0.6
				c-0.7,0.5-1.1,1.1-1.1,1.9c0,0.5,0.1,0.9,0.4,1.2c0.3,0.3,0.9,0.7,1.7,0.9c0.8,0.3,2.1,0.7,3.7,1.1c1.7,0.5,3.1,0.9,4.1,1.5
				c1,0.5,1.7,1.2,2.2,1.9c0.4,0.7,0.7,1.7,0.7,2.7c0,2.1-0.7,3.7-2.2,4.8C258,46.6,256,47.2,253.4,47.2z"/>
		</g>
	</g>
</g>
</svg>
