<?xml version="1.0" encoding="utf-8"?>
<!-- Generator: Adobe Illustrator 21.0.0, SVG Export Plug-In . SVG Version: 6.00 Build 0)  -->
<svg version="1.1" id="Layer_1" xmlns="http://www.w3.org/2000/svg" xmlns:xlink="http://www.w3.org/1999/xlink" x="0px" y="0px"
	 viewBox="0 0 231 95" style="enable-background:new 0 0 231 95;" xml:space="preserve">
<style type="text/css">
	.st0{fill:#2C2939;}
</style>
<g>
	<path class="st0" d="M190.4,52.6l14.1-17h-6.9L185,50.9v-0.1l-5.7,6.9l-1.2,1.5c0,0.1-0.1,0.1-0.1,0.2l-2.1,2.6
		c-0.4,0.4-0.8,0.7-1.3,1c-1.9,1.3-4.2,2-6.6,2v0.1c-1.6,0-3.1-0.3-4.6-0.9c-2.1-0.9-3.9-2.4-5.2-4.3c-1.8-2.6-2.4-5.8-1.8-8.9
		c0.6-3.1,2.4-5.8,5-7.6c2-1.4,4.4-2.1,6.8-2c2.4,0,4.8,0.8,6.7,2.3l3.1-4.3c-2.4-1.7-5.1-2.8-8.1-3.2c-2.9-0.3-5.9,0.1-8.6,1.2
		c-3.1,1.3-5.7,3.5-7.5,6.3c-1.9,2.9-2.9,6.2-2.9,9.7c0,0.1,0,0.1,0,0.2h-0.1c0,1.9-0.5,3.9-1.4,5.6c-0.9,1.7-2.2,3.2-3.8,4.3
		c-1.6,1.1-3.5,1.8-5.4,2c-2,0.2-3.9-0.1-5.7-0.9c-2.1-0.9-3.9-2.4-5.2-4.3c-0.6-0.9-1.1-1.9-1.4-2.9c-0.2-0.1-0.5-0.2-0.7-0.4
		c-1.4-0.8-2.8-1.7-4-2.9c-0.5-0.5-1-1-1.4-1.6c0,0.3,0,0.7,0,1c0,1.9-0.5,3.9-1.4,5.6c-0.9,1.7-2.2,3.2-3.8,4.3
		c-1.6,1.1-3.5,1.8-5.4,2c-2,0.2-3.9-0.1-5.7-0.9c-2.1-0.9-3.9-2.4-5.2-4.3c-1.8-2.6-2.4-5.8-1.8-8.9c0.6-3.1,2.4-5.8,5-7.6
		c1.6-1.1,3.5-1.8,5.4-2c2-0.2,3.9,0.1,5.7,0.9c2.1,0.9,3.9,2.4,5.2,4.3c0,0,0.1,0.1,0.1,0.1h0l0,0c0,0,0,0,0,0
		c0,0.1,0.1,0.2,0.1,0.2c0.1,0.3,0.4,0.8,0.7,1.5l0.1,0.2c0,0.1,0.1,0.1,0.1,0.2c0.4,0.7,0.9,1.3,1.3,1.9c0,0,0.1,0.1,0.1,0.1
		c0.5,0.7,1.1,1.3,1.7,1.9l0,0c0,0,0,0,0,0c0.1,0.1,0.2,0.2,0.3,0.3l0.1,0.1c0.7,0.7,1.5,1.2,2.3,1.8c1,0.6,2.1,1.1,3.2,1.5
		c1.3,0.4,2.6,0.6,3.9,0.6h0.4c2.1,0,4.1-0.3,6.1-1c1.3-0.5,2.5-1.1,3.6-1.9c1.5-1,2.7-2.3,3.8-3.8c0.9-1.3,1.6-2.6,2.2-4
		c0.4-0.9,0.6-1.9,0.6-2.9c0-0.5-0.1-1-0.2-1.5c-0.2-0.8-0.5-1.5-1-2.1c-0.5-0.7-1.2-1.3-1.9-1.7c-0.3-0.2-0.7-0.4-1.1-0.6l0,0
		c-2.2-1.1-4.5-1.6-7-1.7c-2.4-0.1-4.8,0.4-7,1.4c-2,0.9-3.8,2.1-5.3,3.6V24.4h-5.3v14.5c0.3,0.3,0.7,0.7,1,1c1.1,1.2,2.1,2.6,3,4.1
		c0.7,1.2,1.5,2.4,2.3,3.5c0.1,0.2,0.3,0.3,0.4,0.5c0.9-1.8,2.2-3.3,3.9-4.5c1.8-1.2,4-2,6.2-2c2.2-0.1,4.4,0.5,6.3,1.6l0,0
		c0.1,0.1,0.2,0.2,0.3,0.3c0,0.1,0.1,0.1,0.1,0.2c0,0.1,0,0.2,0,0.3c0,0.3-0.1,0.6-0.2,0.9c-0.4,0.9-0.8,1.8-1.3,2.6
		c-0.4,0.6-0.9,1.3-1.5,1.8c-0.9,0.9-2,1.6-3.1,2.1c-1.5,0.6-3.1,0.9-4.8,0.9h-0.3c-0.7,0-1.5-0.1-2.2-0.3c-1.1-0.3-2.2-0.9-3.1-1.6
		c-0.3-0.2-0.6-0.5-0.9-0.8c0,0,0,0,0,0c-0.1-0.1-0.3-0.3-0.4-0.4c-0.7-0.7-1.3-1.5-1.8-2.3c-0.3-0.5-0.7-1-0.8-1.3
		c-0.1-0.2-0.2-0.4-0.2-0.4c-0.8-1.5-1.8-2.8-2.9-4.1c0,0,0,0-0.1-0.1c-0.7-0.6-1.4-1.2-2.2-1.8c-2.3-1.6-5.1-2.6-7.9-2.9
		c-2.8-0.3-5.7,0.2-8.3,1.3c-3.1,1.3-5.7,3.5-7.5,6.3c-2.5,3.8-3.5,8.5-2.6,13c0.9,4.5,3.5,8.5,7.2,11.1c2.3,1.6,5.1,2.6,7.9,2.9
		c2.8,0.3,5.7-0.2,8.3-1.3c3.1-1.3,5.7-3.5,7.5-6.3c0.1-0.2,0.2-0.4,0.3-0.5c1.3,2.1,2.9,3.8,4.9,5.2c2.3,1.6,5.1,2.6,7.9,2.9
		c2.8,0.3,5.7-0.2,8.3-1.3c3.1-1.3,5.7-3.5,7.5-6.3c0.1-0.2,0.3-0.4,0.4-0.6c1.3,2,2.9,3.7,4.9,5.1c2.3,1.6,5.1,2.6,7.9,2.9
		c2.8,0.3,5.7-0.2,8.3-1.3c1.9-0.8,3.6-2,5.1-3.4v4.8h5.3V59.2l2-2.4l10.9,13.7h6.8L190.4,52.6z M185,24.4h-5.3v28.7
		c0,0.8-0.1,1.5-0.2,2.3l5.5-6.7L185,24.4z"/>
	<path class="st0" d="M56.7,36.7v14.1c0,6.6-4,10.5-10,10.5s-10.2-4-10.2-10.5V24.3H26.4v26.4c0,12,7.9,19.5,20.3,19.5
		c12.3,0,20.1-7.5,20.1-19.5V24.3h-0.2c-2.7,0.9-5,2.5-6.8,4.7C58.1,31.2,57,33.9,56.7,36.7z"/>
	<path class="st0" d="M75.5,24.3h-0.2v45.4h10.1V36.7C85.3,31.6,80.8,26.1,75.5,24.3z"/>
	<path class="st0" d="M56.7,36.7v14.1v0c0,0.1,0,0.3,0,0.4c0,4.5-1.6,8.8-4.6,12.2c-3,3.4-7.1,5.6-11.5,6.1c2,0.5,4,0.7,6.1,0.7
		c12.3,0,20.1-7.5,20.1-19.5V24.3h-0.2c-2.7,0.9-5,2.5-6.8,4.7C58.1,31.2,57,33.9,56.7,36.7"/>
</g>
</svg>
